# xmcd CD database file
#
# Track frame offsets:
#	150
#	13717
#	25327
#	40165
#	51475
#	65305
#	78710
#	92162
#	105165
#	115700
#	128342
#	141222
#	156360
#	186460
#	222777
#	241367
#	275277
#
# Disc length: 4146 seconds
#
# Revision: 3
# Processed by: cddbd v1.5.2PL0 Copyright (c) Steve Scherf et al.
# Submitted via: CDex 1.70beta2
#
DISCID=e7103011
DTITLE=Vari - La fisarmonica nel jazz
DYEAR=1995
DGENRE=Jazz
TTITLE0=accordion joe
TTITLE1=strange harmony
TTITLE2=matelotte
TTITLE3=milk-bar
TTITLE4=le charmeur de serpents
TTITLE5=Gorni Kramer - China boy
TTITLE6=Gorni Kramer - carovana negra
TTITLE7=George Shearing - Good to the last bop
TTITLE8=Art Van Damme - lover come back to me
TTITLE9=Herbie Mann with Mat Mathews - bernies tune
TTITLE10=tenderly
TTITLE11=how low the earth
TTITLE12=Azzola/Rossi/Coscia/Salis - Dig
TTITLE13=Azzola/Rossi/Coscia/Salis - linas blues
TTITLE14=Richard Galliano - Tango pour claude
TTITLE15=Gianni Coscia - bergamo per quattro
TTITLE16=Paolo Fresu/Antonello Salis/Furio Di Castri - Paparazzi
EXTD=YEAR: 1995
EXTT0=
EXTT1=
EXTT2=
EXTT3=
EXTT4=
EXTT5=
EXTT6=
EXTT7=
EXTT8=
EXTT9=
EXTT10=
EXTT11=
EXTT12=
EXTT13=
EXTT14=
EXTT15=
EXTT16=
PLAYORDER=
